<mxfile host="Electron" agent="Mozilla/5.0 (Windows NT 10.0; Win64; x64) AppleWebKit/537.36 (KHTML, like Gecko) draw.io/28.1.2 Chrome/138.0.7204.243 Electron/37.4.0 Safari/537.36" version="28.1.2">
  <diagram name="Page-1" id="6SHaW-hEocdOmAAaWUGv">
    <mxGraphModel dx="455" dy="1030" grid="1" gridSize="10" guides="1" tooltips="1" connect="1" arrows="1" fold="1" page="1" pageScale="1" pageWidth="1600" pageHeight="900" math="0" shadow="0">
      <root>
        <mxCell id="0" />
        <mxCell id="1" parent="0" />
        <mxCell id="_RQcSSzykjmD_c5r0QFh-43" value="" style="rounded=1;whiteSpace=wrap;html=1;fillColor=none;dashed=1;dashPattern=8 8;" parent="1" vertex="1">
          <mxGeometry x="800" y="120" width="200" height="560" as="geometry" />
        </mxCell>
        <mxCell id="_RQcSSzykjmD_c5r0QFh-41" value="" style="rounded=1;whiteSpace=wrap;html=1;fillColor=none;dashed=1;dashPattern=8 8;" parent="1" vertex="1">
          <mxGeometry x="280" y="120" width="460" height="560" as="geometry" />
        </mxCell>
        <mxCell id="_RQcSSzykjmD_c5r0QFh-1" value="crm_cust_info" style="swimlane;fontStyle=0;childLayout=stackLayout;horizontal=1;startSize=30;horizontalStack=0;resizeParent=1;resizeParentMax=0;resizeLast=0;collapsible=1;marginBottom=0;whiteSpace=wrap;html=1;fillColor=#1ba1e2;fontColor=#ffffff;strokeColor=#006EAF;" parent="1" vertex="1">
          <mxGeometry x="560" y="440" width="140" height="90" as="geometry">
            <mxRectangle x="70" y="140" width="60" height="30" as="alternateBounds" />
          </mxGeometry>
        </mxCell>
        <mxCell id="_RQcSSzykjmD_c5r0QFh-2" value="cst_id" style="text;strokeColor=none;fillColor=none;align=left;verticalAlign=middle;spacingLeft=4;spacingRight=4;overflow=hidden;points=[[0,0.5],[1,0.5]];portConstraint=eastwest;rotatable=0;whiteSpace=wrap;html=1;" parent="_RQcSSzykjmD_c5r0QFh-1" vertex="1">
          <mxGeometry y="30" width="140" height="30" as="geometry" />
        </mxCell>
        <mxCell id="_RQcSSzykjmD_c5r0QFh-22" value="cst_key" style="text;strokeColor=none;fillColor=none;align=left;verticalAlign=middle;spacingLeft=4;spacingRight=4;overflow=hidden;points=[[0,0.5],[1,0.5]];portConstraint=eastwest;rotatable=0;whiteSpace=wrap;html=1;" parent="_RQcSSzykjmD_c5r0QFh-1" vertex="1">
          <mxGeometry y="60" width="140" height="30" as="geometry" />
        </mxCell>
        <mxCell id="_RQcSSzykjmD_c5r0QFh-5" value="Customer Information" style="text;html=1;align=center;verticalAlign=middle;whiteSpace=wrap;rounded=0;" parent="1" vertex="1">
          <mxGeometry x="570" y="400" width="120" height="30" as="geometry" />
        </mxCell>
        <mxCell id="_RQcSSzykjmD_c5r0QFh-6" value="crm_prd_info" style="swimlane;fontStyle=0;childLayout=stackLayout;horizontal=1;startSize=30;horizontalStack=0;resizeParent=1;resizeParentMax=0;resizeLast=0;collapsible=1;marginBottom=0;whiteSpace=wrap;html=1;fillColor=#1ba1e2;fontColor=#ffffff;strokeColor=#006EAF;" parent="1" vertex="1">
          <mxGeometry x="560" y="260" width="140" height="60" as="geometry">
            <mxRectangle x="70" y="140" width="60" height="30" as="alternateBounds" />
          </mxGeometry>
        </mxCell>
        <mxCell id="_RQcSSzykjmD_c5r0QFh-7" value="prd_key" style="text;strokeColor=none;fillColor=none;align=left;verticalAlign=middle;spacingLeft=4;spacingRight=4;overflow=hidden;points=[[0,0.5],[1,0.5]];portConstraint=eastwest;rotatable=0;whiteSpace=wrap;html=1;" parent="_RQcSSzykjmD_c5r0QFh-6" vertex="1">
          <mxGeometry y="30" width="140" height="30" as="geometry" />
        </mxCell>
        <mxCell id="_RQcSSzykjmD_c5r0QFh-8" value="Current &amp;amp; History Product Information" style="text;html=1;align=center;verticalAlign=middle;whiteSpace=wrap;rounded=0;" parent="1" vertex="1">
          <mxGeometry x="570" y="220" width="120" height="30" as="geometry" />
        </mxCell>
        <mxCell id="_RQcSSzykjmD_c5r0QFh-9" value="crm_cust_info" style="swimlane;fontStyle=0;childLayout=stackLayout;horizontal=1;startSize=30;horizontalStack=0;resizeParent=1;resizeParentMax=0;resizeLast=0;collapsible=1;marginBottom=0;whiteSpace=wrap;html=1;fillColor=#1ba1e2;fontColor=#ffffff;strokeColor=#006EAF;" parent="1" vertex="1">
          <mxGeometry x="300" y="340" width="140" height="90" as="geometry">
            <mxRectangle x="70" y="140" width="60" height="30" as="alternateBounds" />
          </mxGeometry>
        </mxCell>
        <mxCell id="_RQcSSzykjmD_c5r0QFh-10" value="prd_key" style="text;strokeColor=none;fillColor=none;align=left;verticalAlign=middle;spacingLeft=4;spacingRight=4;overflow=hidden;points=[[0,0.5],[1,0.5]];portConstraint=eastwest;rotatable=0;whiteSpace=wrap;html=1;" parent="_RQcSSzykjmD_c5r0QFh-9" vertex="1">
          <mxGeometry y="30" width="140" height="30" as="geometry" />
        </mxCell>
        <mxCell id="_RQcSSzykjmD_c5r0QFh-14" value="cst_id" style="text;strokeColor=none;fillColor=none;align=left;verticalAlign=middle;spacingLeft=4;spacingRight=4;overflow=hidden;points=[[0,0.5],[1,0.5]];portConstraint=eastwest;rotatable=0;whiteSpace=wrap;html=1;" parent="_RQcSSzykjmD_c5r0QFh-9" vertex="1">
          <mxGeometry y="60" width="140" height="30" as="geometry" />
        </mxCell>
        <mxCell id="_RQcSSzykjmD_c5r0QFh-11" value="Transactional Records about Sales &amp;amp; Orders" style="text;html=1;align=center;verticalAlign=middle;whiteSpace=wrap;rounded=0;" parent="1" vertex="1">
          <mxGeometry x="310" y="300" width="120" height="30" as="geometry" />
        </mxCell>
        <mxCell id="_RQcSSzykjmD_c5r0QFh-17" style="edgeStyle=orthogonalEdgeStyle;rounded=0;orthogonalLoop=1;jettySize=auto;html=1;entryX=0;entryY=0.5;entryDx=0;entryDy=0;" parent="1" source="_RQcSSzykjmD_c5r0QFh-10" target="_RQcSSzykjmD_c5r0QFh-7" edge="1">
          <mxGeometry relative="1" as="geometry" />
        </mxCell>
        <mxCell id="_RQcSSzykjmD_c5r0QFh-18" style="edgeStyle=orthogonalEdgeStyle;rounded=0;orthogonalLoop=1;jettySize=auto;html=1;entryX=0;entryY=0.5;entryDx=0;entryDy=0;" parent="1" source="_RQcSSzykjmD_c5r0QFh-14" target="_RQcSSzykjmD_c5r0QFh-2" edge="1">
          <mxGeometry relative="1" as="geometry" />
        </mxCell>
        <mxCell id="_RQcSSzykjmD_c5r0QFh-19" value="erp_cust_az12" style="swimlane;fontStyle=0;childLayout=stackLayout;horizontal=1;startSize=30;horizontalStack=0;resizeParent=1;resizeParentMax=0;resizeLast=0;collapsible=1;marginBottom=0;whiteSpace=wrap;html=1;fillColor=#f0a30a;fontColor=#000000;strokeColor=#BD7000;" parent="1" vertex="1">
          <mxGeometry x="840" y="380" width="140" height="60" as="geometry">
            <mxRectangle x="70" y="140" width="60" height="30" as="alternateBounds" />
          </mxGeometry>
        </mxCell>
        <mxCell id="_RQcSSzykjmD_c5r0QFh-20" value="cid" style="text;strokeColor=none;fillColor=none;align=left;verticalAlign=middle;spacingLeft=4;spacingRight=4;overflow=hidden;points=[[0,0.5],[1,0.5]];portConstraint=eastwest;rotatable=0;whiteSpace=wrap;html=1;" parent="_RQcSSzykjmD_c5r0QFh-19" vertex="1">
          <mxGeometry y="30" width="140" height="30" as="geometry" />
        </mxCell>
        <mxCell id="_RQcSSzykjmD_c5r0QFh-21" value="Extra Customer Information (Birthdate)" style="text;html=1;align=center;verticalAlign=middle;whiteSpace=wrap;rounded=0;" parent="1" vertex="1">
          <mxGeometry x="845" y="340" width="130" height="30" as="geometry" />
        </mxCell>
        <mxCell id="_RQcSSzykjmD_c5r0QFh-26" value="erp_loc_a101" style="swimlane;fontStyle=0;childLayout=stackLayout;horizontal=1;startSize=30;horizontalStack=0;resizeParent=1;resizeParentMax=0;resizeLast=0;collapsible=1;marginBottom=0;whiteSpace=wrap;html=1;fillColor=#f0a30a;fontColor=#000000;strokeColor=#BD7000;" parent="1" vertex="1">
          <mxGeometry x="840" y="550" width="140" height="60" as="geometry">
            <mxRectangle x="70" y="140" width="60" height="30" as="alternateBounds" />
          </mxGeometry>
        </mxCell>
        <mxCell id="_RQcSSzykjmD_c5r0QFh-27" value="cid" style="text;strokeColor=none;fillColor=none;align=left;verticalAlign=middle;spacingLeft=4;spacingRight=4;overflow=hidden;points=[[0,0.5],[1,0.5]];portConstraint=eastwest;rotatable=0;whiteSpace=wrap;html=1;" parent="_RQcSSzykjmD_c5r0QFh-26" vertex="1">
          <mxGeometry y="30" width="140" height="30" as="geometry" />
        </mxCell>
        <mxCell id="_RQcSSzykjmD_c5r0QFh-28" value="Location of Customers" style="text;html=1;align=center;verticalAlign=middle;whiteSpace=wrap;rounded=0;" parent="1" vertex="1">
          <mxGeometry x="845" y="510" width="130" height="30" as="geometry" />
        </mxCell>
        <mxCell id="_RQcSSzykjmD_c5r0QFh-30" value="erp_px_cat_g1v2" style="swimlane;fontStyle=0;childLayout=stackLayout;horizontal=1;startSize=30;horizontalStack=0;resizeParent=1;resizeParentMax=0;resizeLast=0;collapsible=1;marginBottom=0;whiteSpace=wrap;html=1;fillColor=#f0a30a;fontColor=#000000;strokeColor=#BD7000;" parent="1" vertex="1">
          <mxGeometry x="840" y="220" width="140" height="60" as="geometry">
            <mxRectangle x="70" y="140" width="60" height="30" as="alternateBounds" />
          </mxGeometry>
        </mxCell>
        <mxCell id="_RQcSSzykjmD_c5r0QFh-31" value="id" style="text;strokeColor=none;fillColor=none;align=left;verticalAlign=middle;spacingLeft=4;spacingRight=4;overflow=hidden;points=[[0,0.5],[1,0.5]];portConstraint=eastwest;rotatable=0;whiteSpace=wrap;html=1;" parent="_RQcSSzykjmD_c5r0QFh-30" vertex="1">
          <mxGeometry y="30" width="140" height="30" as="geometry" />
        </mxCell>
        <mxCell id="_RQcSSzykjmD_c5r0QFh-32" value="Product Category" style="text;html=1;align=center;verticalAlign=middle;whiteSpace=wrap;rounded=0;" parent="1" vertex="1">
          <mxGeometry x="845" y="180" width="130" height="30" as="geometry" />
        </mxCell>
        <mxCell id="_RQcSSzykjmD_c5r0QFh-37" style="edgeStyle=orthogonalEdgeStyle;rounded=0;orthogonalLoop=1;jettySize=auto;html=1;" parent="1" source="_RQcSSzykjmD_c5r0QFh-27" target="_RQcSSzykjmD_c5r0QFh-22" edge="1">
          <mxGeometry relative="1" as="geometry" />
        </mxCell>
        <mxCell id="_RQcSSzykjmD_c5r0QFh-39" style="edgeStyle=orthogonalEdgeStyle;rounded=0;orthogonalLoop=1;jettySize=auto;html=1;entryX=1;entryY=0.5;entryDx=0;entryDy=0;" parent="1" source="_RQcSSzykjmD_c5r0QFh-20" target="_RQcSSzykjmD_c5r0QFh-22" edge="1">
          <mxGeometry relative="1" as="geometry" />
        </mxCell>
        <mxCell id="_RQcSSzykjmD_c5r0QFh-40" style="edgeStyle=orthogonalEdgeStyle;rounded=0;orthogonalLoop=1;jettySize=auto;html=1;entryX=1;entryY=0.5;entryDx=0;entryDy=0;" parent="1" source="_RQcSSzykjmD_c5r0QFh-31" target="_RQcSSzykjmD_c5r0QFh-7" edge="1">
          <mxGeometry relative="1" as="geometry" />
        </mxCell>
        <mxCell id="_RQcSSzykjmD_c5r0QFh-42" value="&lt;b&gt;CRM&lt;/b&gt;" style="rounded=0;whiteSpace=wrap;html=1;fontSize=25;fillColor=#1ba1e2;fontColor=#ffffff;strokeColor=#006EAF;" parent="1" vertex="1">
          <mxGeometry x="440" y="90" width="130" height="60" as="geometry" />
        </mxCell>
        <mxCell id="_RQcSSzykjmD_c5r0QFh-44" value="&lt;b&gt;ERP&lt;/b&gt;" style="rounded=0;whiteSpace=wrap;html=1;fontSize=25;fillColor=#f0a30a;fontColor=#000000;strokeColor=#BD7000;" parent="1" vertex="1">
          <mxGeometry x="835" y="80" width="130" height="60" as="geometry" />
        </mxCell>
        <mxCell id="MQ6uTU9j1uQr67VuiXhY-1" value="SALES" style="rounded=0;whiteSpace=wrap;html=1;fillColor=#FF99FF;fontColor=#ffffff;strokeColor=none;" vertex="1" parent="1">
          <mxGeometry x="300" y="430" width="140" height="30" as="geometry" />
        </mxCell>
        <mxCell id="MQ6uTU9j1uQr67VuiXhY-2" value="PRODUCT" style="rounded=0;whiteSpace=wrap;html=1;fillColor=#F19C99;fontColor=#ffffff;strokeColor=none;" vertex="1" parent="1">
          <mxGeometry x="560" y="320" width="140" height="30" as="geometry" />
        </mxCell>
        <mxCell id="MQ6uTU9j1uQr67VuiXhY-3" value="CUSTOMER" style="rounded=0;whiteSpace=wrap;html=1;fillColor=#00CC00;fontColor=#ffffff;strokeColor=none;" vertex="1" parent="1">
          <mxGeometry x="560" y="530" width="140" height="30" as="geometry" />
        </mxCell>
        <mxCell id="MQ6uTU9j1uQr67VuiXhY-4" value="PRODUCT" style="rounded=0;whiteSpace=wrap;html=1;fillColor=#F19C99;fontColor=#ffffff;strokeColor=none;" vertex="1" parent="1">
          <mxGeometry x="840" y="280" width="140" height="30" as="geometry" />
        </mxCell>
        <mxCell id="MQ6uTU9j1uQr67VuiXhY-5" value="CUSTOMER" style="rounded=0;whiteSpace=wrap;html=1;fillColor=#00CC00;fontColor=#ffffff;strokeColor=none;" vertex="1" parent="1">
          <mxGeometry x="840" y="440" width="140" height="30" as="geometry" />
        </mxCell>
        <mxCell id="MQ6uTU9j1uQr67VuiXhY-6" value="CUSTOMER" style="rounded=0;whiteSpace=wrap;html=1;fillColor=#00CC00;fontColor=#ffffff;strokeColor=none;" vertex="1" parent="1">
          <mxGeometry x="840" y="610" width="140" height="30" as="geometry" />
        </mxCell>
      </root>
    </mxGraphModel>
  </diagram>
</mxfile>
